<svg width="22" height="22" viewBox="0 0 22 22" fill="none" xmlns="http://www.w3.org/2000/svg">
<path d="M17.875 7.5625H4.125C3.7453 7.5625 3.4375 7.8703 3.4375 8.25V17.875C3.4375 18.2547 3.7453 18.5625 4.125 18.5625H17.875C18.2547 18.5625 18.5625 18.2547 18.5625 17.875V8.25C18.5625 7.8703 18.2547 7.5625 17.875 7.5625Z" stroke="white" stroke-width="1.5" stroke-linecap="round" stroke-linejoin="round"/>
<path d="M7.90625 7.5625V4.46875C7.90625 3.64824 8.2322 2.86133 8.81239 2.28114C9.39258 1.70095 10.1795 1.375 11 1.375C11.8205 1.375 12.6074 1.70095 13.1876 2.28114C13.7678 2.86133 14.0938 3.64824 14.0938 4.46875V7.5625" stroke="white" stroke-width="1.5" stroke-linecap="round" stroke-linejoin="round"/>
</svg>
