<svg width="55" height="61" viewBox="0 0 55 61" fill="none" xmlns="http://www.w3.org/2000/svg">
<path d="M54.6568 32.8262C54.6568 36.6066 53.939 40.2173 52.5032 43.6584C51.0675 47.0995 49.1375 50.068 46.7132 52.564C44.2889 55.0601 41.4057 57.0472 38.0634 58.5254C34.7212 60.0036 31.2143 60.7427 27.5425 60.7427C23.8708 60.7427 20.3638 60.0036 17.0216 58.5254C13.6794 57.0472 10.7962 55.0601 8.37189 52.564C5.94761 50.068 4.0176 47.0995 2.58186 43.6584C1.14612 40.2173 0.428253 36.6066 0.428253 32.8262C0.428253 28.4158 1.37561 24.2598 3.27031 20.3583C5.16502 16.4568 7.83055 13.1853 11.2669 10.5439C12.279 9.76847 13.4029 9.46555 14.6385 9.63518C15.8742 9.80481 16.8569 10.4106 17.5865 11.4527C18.3397 12.4705 18.628 13.6155 18.4515 14.8877C18.275 16.1599 17.6924 17.1838 16.7039 17.9592C14.3973 19.7525 12.6144 21.9456 11.3552 24.5385C10.096 27.1315 9.46635 29.894 9.46635 32.8262C9.46635 35.3465 9.94297 37.7516 10.8962 40.0416C11.8494 42.3316 13.1381 44.3127 14.7621 45.9848C16.3861 47.6569 18.3103 48.9836 20.5345 49.9651C22.7587 50.9465 25.0947 51.4372 27.5425 51.4372C29.9904 51.4372 32.3264 50.9465 34.5506 49.9651C36.7748 48.9836 38.6989 47.6569 40.323 45.9848C41.947 44.3127 43.2356 42.3316 44.1889 40.0416C45.1421 37.7516 45.6187 35.3465 45.6187 32.8262C45.6187 29.894 44.9891 27.1315 43.7299 24.5385C42.4707 21.9456 40.6878 19.7525 38.3812 17.9592C37.3927 17.1838 36.8101 16.1599 36.6336 14.8877C36.4571 13.6155 36.7454 12.4705 37.4986 11.4527C38.2282 10.4106 39.2168 9.80481 40.4642 9.63518C41.7116 9.46555 42.8296 9.76847 43.8182 10.5439C47.2545 13.1853 49.9201 16.4568 51.8148 20.3583C53.7095 24.2598 54.6568 28.4158 54.6568 32.8262ZM32.0616 4.90974V28.1735C32.0616 29.4336 31.6144 30.5241 30.72 31.4449C29.8256 32.3658 28.7665 32.8262 27.5425 32.8262C26.3186 32.8262 25.2595 32.3658 24.3651 31.4449C23.4707 30.5241 23.0235 29.4336 23.0235 28.1735V4.90974C23.0235 3.64962 23.4707 2.55913 24.3651 1.63827C25.2595 0.717417 26.3186 0.256989 27.5425 0.256989C28.7665 0.256989 29.8256 0.717417 30.72 1.63827C31.6144 2.55913 32.0616 3.64962 32.0616 4.90974Z" fill="white"/>
</svg>
