<svg width="25" height="25" viewBox="0 0 25 25" fill="none" xmlns="http://www.w3.org/2000/svg">
<path d="M9.375 20.3125H7.03125C5.58085 20.3125 4.18985 19.7363 3.16426 18.7107C2.13867 17.6852 1.5625 16.2942 1.5625 14.8438C1.5625 13.3933 2.13867 12.0024 3.16426 10.9768C4.18985 9.95117 5.58085 9.375 7.03125 9.375C7.4888 9.37483 7.94465 9.43058 8.38867 9.54102" stroke="white" stroke-width="1.5" stroke-linecap="round" stroke-linejoin="round"/>
<path d="M7.8125 12.5C7.8125 11.2621 8.10667 10.0419 8.67076 8.94C9.23485 7.83808 10.0527 6.88599 11.057 6.16217C12.0612 5.43836 13.2231 4.96354 14.4468 4.77685C15.6706 4.59017 16.9211 4.69695 18.0955 5.08841C19.2699 5.47987 20.3345 6.1448 21.2014 7.0284C22.0684 7.912 22.713 8.98897 23.0821 10.1706C23.4512 11.3522 23.5343 12.6046 23.3244 13.8245C23.1145 15.0445 22.6177 16.1972 21.875 17.1875" stroke="white" stroke-width="1.5" stroke-linecap="round" stroke-linejoin="round"/>
<path d="M11.5332 15.8105L14.8437 12.5L18.1543 15.8105" stroke="white" stroke-width="1.5" stroke-linecap="round" stroke-linejoin="round"/>
<path d="M14.8438 20.3125V12.5" stroke="white" stroke-width="1.5" stroke-linecap="round" stroke-linejoin="round"/>
</svg>
