<svg width="24" height="24" viewBox="0 0 24 24" fill="none" xmlns="http://www.w3.org/2000/svg">
<path fill-rule="evenodd" clip-rule="evenodd" d="M20.2928 11.1771C20.6922 11.2321 21 11.5795 21 11.9999C21 12.4585 20.6337 12.8302 20.1818 12.8302H5.80007L10.9953 18.0813L11.0747 18.1743C11.313 18.4989 11.2876 18.9602 10.9977 19.2556C10.6788 19.5805 10.1608 19.5816 9.84062 19.258L3.25226 12.5996C3.21304 12.5614 3.17756 12.5194 3.14642 12.474C2.92336 12.1498 2.95478 11.6999 3.24067 11.4111L9.84067 4.74193L9.9326 4.66174C10.2534 4.42125 10.7079 4.44905 10.9977 4.74446C11.3166 5.06942 11.3155 5.59515 10.9953 5.91871L5.79877 11.1696L20.1818 11.1696L20.2928 11.1771Z" fill="white"/>
</svg>
