<svg width="20" height="20" viewBox="0 0 20 20" fill="none" xmlns="http://www.w3.org/2000/svg">
<path fill-rule="evenodd" clip-rule="evenodd" d="M4.03206 2.00015H6.73606C7.86406 2.00015 8.76806 2.92015 8.76806 4.04895V6.77615C8.76806 7.91215 7.86406 8.82415 6.73606 8.82415H4.03206C2.91206 8.82415 2.00006 7.91215 2.00006 6.77615V4.04895C2.00006 2.92015 2.91206 2.00015 4.03206 2.00015ZM4.03206 11.1759H6.73606C7.86406 11.1759 8.76806 12.0887 8.76806 13.2247V15.9519C8.76806 17.0799 7.86406 17.9999 6.73606 17.9999H4.03206C2.91206 17.9999 2.00006 17.0799 2.00006 15.9519V13.2247C2.00006 12.0887 2.91206 11.1759 4.03206 11.1759ZM15.9681 2.00015H13.2641C12.1361 2.00015 11.2321 2.92015 11.2321 4.04895V6.77615C11.2321 7.91215 12.1361 8.82415 13.2641 8.82415H15.9681C17.0881 8.82415 18.0001 7.91215 18.0001 6.77615V4.04895C18.0001 2.92015 17.0881 2.00015 15.9681 2.00015ZM13.2641 11.1759H15.9681C17.0881 11.1759 18.0001 12.0887 18.0001 13.2247V15.9519C18.0001 17.0799 17.0881 17.9999 15.9681 17.9999H13.2641C12.1361 17.9999 11.2321 17.0799 11.2321 15.9519V13.2247C11.2321 12.0887 12.1361 11.1759 13.2641 11.1759Z" fill="white"/>
</svg>
